# xmcd
#
# Track frame offsets:
#	150
#	35026
#	51095
#	68348
#	90638
#	108973
#	145518
#	173640
#
# Disc length: 2408 seconds
#
# Revision: 0
# Processed by: cddbd v1.5.2PL0 Copyright (c) Steve Scherf et al.
# Submitted via: audiograbber 1.83.01
#
DISCID=5d096608
DTITLE=Martin Ketner Band Trouble Heroes - Planet Of Sins
DYEAR=2014
DGENRE=Blues
TTITLE0=Road To The Mountain
TTITLE1=Red Dragon
TTITLE2=Underdog
TTITLE3=I am Closer
TTITLE4=Guys From The Northern River
TTITLE5=Mary Jane
TTITLE6=Planet Of Sins
TTITLE7=Umpf DE, DE, BRD
EXTD=
EXTT0=
EXTT1=
EXTT2=
EXTT3=
EXTT4=
EXTT5=
EXTT6=
EXTT7=
PLAYORDER=
